<svg id="visual" viewBox="0 0 900 600" width="900" height="600" xmlns="http://www.w3.org/2000/svg" xmlns:xlink="http://www.w3.org/1999/xlink" version="1.1"><path d="M0 163L13.7 144C27.3 125 54.7 87 82 78C109.3 69 136.7 89 163.8 98C191 107 218 105 245.2 103C272.3 101 299.7 99 327 109C354.3 119 381.7 141 409 137C436.3 133 463.7 103 491 94C518.3 85 545.7 97 573 99C600.3 101 627.7 93 654.8 87C682 81 709 77 736.2 85C763.3 93 790.7 113 818 122C845.3 131 872.7 129 886.3 128L900 127L900 0L886.3 0C872.7 0 845.3 0 818 0C790.7 0 763.3 0 736.2 0C709 0 682 0 654.8 0C627.7 0 600.3 0 573 0C545.7 0 518.3 0 491 0C463.7 0 436.3 0 409 0C381.7 0 354.3 0 327 0C299.7 0 272.3 0 245.2 0C218 0 191 0 163.8 0C136.7 0 109.3 0 82 0C54.7 0 27.3 0 13.7 0L0 0Z" fill="#575dbc"></path><path d="M0 223L13.7 215C27.3 207 54.7 191 82 184C109.3 177 136.7 179 163.8 185C191 191 218 201 245.2 201C272.3 201 299.7 191 327 191C354.3 191 381.7 201 409 205C436.3 209 463.7 207 491 210C518.3 213 545.7 221 573 218C600.3 215 627.7 201 654.8 189C682 177 709 167 736.2 170C763.3 173 790.7 189 818 198C845.3 207 872.7 209 886.3 210L900 211L900 125L886.3 126C872.7 127 845.3 129 818 120C790.7 111 763.3 91 736.2 83C709 75 682 79 654.8 85C627.7 91 600.3 99 573 97C545.7 95 518.3 83 491 92C463.7 101 436.3 131 409 135C381.7 139 354.3 117 327 107C299.7 97 272.3 99 245.2 101C218 103 191 105 163.8 96C136.7 87 109.3 67 82 76C54.7 85 27.3 123 13.7 142L0 161Z" fill="#3f46ae"></path><path d="M0 433L13.7 432C27.3 431 54.7 429 82 426C109.3 423 136.7 419 163.8 405C191 391 218 367 245.2 356C272.3 345 299.7 347 327 356C354.3 365 381.7 381 409 388C436.3 395 463.7 393 491 383C518.3 373 545.7 355 573 359C600.3 363 627.7 389 654.8 392C682 395 709 375 736.2 359C763.3 343 790.7 331 818 345C845.3 359 872.7 399 886.3 419L900 439L900 209L886.3 208C872.7 207 845.3 205 818 196C790.7 187 763.3 171 736.2 168C709 165 682 175 654.8 187C627.7 199 600.3 213 573 216C545.7 219 518.3 211 491 208C463.7 205 436.3 207 409 203C381.7 199 354.3 189 327 189C299.7 189 272.3 199 245.2 199C218 199 191 189 163.8 183C136.7 177 109.3 175 82 182C54.7 189 27.3 205 13.7 213L0 221Z" fill="#21309f"></path><path d="M0 499L13.7 499C27.3 499 54.7 499 82 491C109.3 483 136.7 467 163.8 452C191 437 218 423 245.2 417C272.3 411 299.7 413 327 427C354.3 441 381.7 467 409 469C436.3 471 463.7 449 491 431C518.3 413 545.7 399 573 405C600.3 411 627.7 437 654.8 445C682 453 709 443 736.2 432C763.3 421 790.7 409 818 424C845.3 439 872.7 481 886.3 502L900 523L900 437L886.3 417C872.7 397 845.3 357 818 343C790.7 329 763.3 341 736.2 357C709 373 682 393 654.8 390C627.7 387 600.3 361 573 357C545.7 353 518.3 371 491 381C463.7 391 436.3 393 409 386C381.7 379 354.3 363 327 354C299.7 345 272.3 343 245.2 354C218 365 191 389 163.8 403C136.7 417 109.3 421 82 424C54.7 427 27.3 429 13.7 430L0 431Z" fill="#162b8a"></path><path d="M0 601L13.7 601C27.3 601 54.7 601 82 601C109.3 601 136.7 601 163.8 601C191 601 218 601 245.2 601C272.3 601 299.7 601 327 601C354.3 601 381.7 601 409 601C436.3 601 463.7 601 491 601C518.3 601 545.7 601 573 601C600.3 601 627.7 601 654.8 601C682 601 709 601 736.2 601C763.3 601 790.7 601 818 601C845.3 601 872.7 601 886.3 601L900 601L900 521L886.3 500C872.7 479 845.3 437 818 422C790.7 407 763.3 419 736.2 430C709 441 682 451 654.8 443C627.7 435 600.3 409 573 403C545.7 397 518.3 411 491 429C463.7 447 436.3 469 409 467C381.7 465 354.3 439 327 425C299.7 411 272.3 409 245.2 415C218 421 191 435 163.8 450C136.7 465 109.3 481 82 489C54.7 497 27.3 497 13.7 497L0 497Z" fill="#0d2676"></path></svg>